<?xml version="1.0" encoding="utf-8"?>
<!-- Generator: Adobe Illustrator 28.0.0, SVG Export Plug-In . SVG Version: 6.00 Build 0)  -->
<svg version="1.1" id="图层_1" xmlns="http://www.w3.org/2000/svg" xmlns:xlink="http://www.w3.org/1999/xlink" x="0px" y="0px"
	 viewBox="0 0 300 113" style="enable-background:new 0 0 300 113;" xml:space="preserve">
<style type="text/css">
	.st0{fill:#FFDD00;}
</style>
<g>
	<path d="M1.24,44.6c0-3.12,1.04-5.59,3.13-7.42c2.09-1.82,5.53-3.02,10.33-3.6l12.53-1.51c-0.14-4.51-2.93-6.77-8.35-6.77
		c-2.54,0-4.57,0.56-6.08,1.69c-1.51,1.13-2.27,2.82-2.27,5.08H1.74c0-4.27,1.58-7.74,4.75-10.4s7.3-4,12.38-4
		c5.23,0,9.48,1.43,12.74,4.28c3.26,2.86,4.9,6.95,4.9,12.28v12.24h5.26v8.06h-7.34c-1.58,0-2.8-0.43-3.64-1.3
		c-0.84-0.86-1.26-2.06-1.26-3.6v-1.22l1.44-4.1h-2.45c-1.73,7.3-6.58,10.94-14.54,10.94c-2.59,0-4.79-0.36-6.59-1.08
		c-1.8-0.72-3.11-1.68-3.92-2.88c-0.82-1.2-1.39-2.34-1.73-3.42C1.41,46.8,1.24,45.71,1.24,44.6z M10.53,43.02
		c0,1.39,0.47,2.44,1.4,3.13c0.94,0.7,2.17,1.04,3.71,1.04c3.5,0,6.31-0.88,8.42-2.63c2.11-1.75,3.17-4.04,3.17-6.88l-10.87,1.37
		c-2.06,0.24-3.55,0.64-4.46,1.19C10.98,40.8,10.53,41.72,10.53,43.02z"/>
	<path d="M58.91,47.19l13.03-0.72v8.06l-16.7,0.72c-1.82,0.05-3.22-0.41-4.18-1.37c-0.96-0.96-1.44-2.38-1.44-4.25V26.46h-8.35
		v-8.06h8.35v-7.78l9.29-2.88v10.66H70.5v8.06H58.91V47.19z"/>
	<path d="M75.62,36.03c0-5.66,1.7-10.14,5.11-13.43c3.41-3.29,7.85-4.93,13.32-4.93c5.47,0,9.88,1.58,13.21,4.75
		c3.34,3.17,5,7.46,5,12.89v3.02H84.4c0.1,2.83,1.02,5.1,2.77,6.8c1.75,1.7,4.4,2.56,7.96,2.56c5.14,0,8.18-1.94,9.14-5.83h9.29
		c-0.62,3.31-2.5,6.37-5.62,9.18c-3.12,2.81-7.39,4.21-12.82,4.21c-6.38,0-11.23-1.82-14.54-5.47
		C77.27,46.14,75.62,41.56,75.62,36.03z M84.4,32.72h19.08c0-2.16-0.78-3.94-2.34-5.33c-1.56-1.39-3.92-2.09-7.09-2.09
		s-5.57,0.71-7.2,2.12C85.21,28.85,84.4,30.61,84.4,32.72z"/>
	<path d="M116.66,54.54v-8.06h10.08V9.18l-8.14,0.5V1.62l11.66-0.58c1.87-0.1,3.3,0.34,4.28,1.3c0.98,0.96,1.48,2.4,1.48,4.32v39.82
		h10.01v8.06H116.66z"/>
	<path d="M150.64,54.54v-8.06h10.22V25.95l-8.28,0.5v-8.06l11.52-0.72c1.82-0.1,3.21,0.34,4.18,1.3c0.96,0.96,1.44,2.33,1.44,4.1
		v23.4h10.22v8.06H150.64z M168.89,12.53c-1.13,0.98-2.63,1.48-4.5,1.48c-1.87,0-3.36-0.49-4.46-1.48c-1.11-0.98-1.66-2.31-1.66-4
		c0-1.68,0.55-3.01,1.66-4c1.1-0.98,2.59-1.48,4.46-1.48c1.82,0,3.31,0.5,4.46,1.51c1.15,1.01,1.73,2.33,1.73,3.96
		C170.58,10.21,170.02,11.54,168.89,12.53z"/>
	<path d="M182.82,36.03c0-5.66,1.7-10.14,5.11-13.43c3.41-3.29,7.85-4.93,13.32-4.93s9.88,1.58,13.21,4.75c3.34,3.17,5,7.46,5,12.89
		v3.02h-27.86c0.09,2.83,1.02,5.1,2.77,6.8c1.75,1.7,4.4,2.56,7.96,2.56c5.14,0,8.18-1.94,9.14-5.83h9.29
		c-0.62,3.31-2.5,6.37-5.62,9.18c-3.12,2.81-7.39,4.21-12.82,4.21c-6.38,0-11.23-1.82-14.54-5.47
		C184.48,46.14,182.82,41.56,182.82,36.03z M191.61,32.72h19.08c0-2.16-0.78-3.94-2.34-5.33c-1.56-1.39-3.92-2.09-7.09-2.09
		s-5.57,0.71-7.2,2.12C192.42,28.85,191.61,30.61,191.61,32.72z"/>
	<path d="M227.03,54.54V23.36c0-1.82,0.49-3.22,1.48-4.18c0.98-0.96,2.39-1.42,4.21-1.37l22.25,0.58v8.06l-18.65-0.5v28.58H227.03z"
		/>
</g>
<g>
	<path d="M2.16,92.37v-31.9h9.29v28.44c0,5.23,0.84,9.04,2.52,11.41c1.68,2.38,5.02,3.56,10.01,3.56c4.99,0,8.33-1.19,10.01-3.56
		c1.68-2.38,2.52-6.18,2.52-11.41V60.47h9.29v31.9c0,6.38-1.84,11.24-5.51,14.58c-3.67,3.34-9.11,5-16.31,5
		c-7.25,0-12.7-1.67-16.34-5C3.99,103.61,2.16,98.75,2.16,92.37z"/>
	<path d="M53.21,111.23V60.47h18.36l19.37,48.38h2.38l-1.66-6.05V60.47h9.22v50.76H82.52l-19.3-48.38h-2.38l1.66,6.05v42.34H53.21z"
		/>
	<path d="M140.55,68.54H129.1v34.63h11.45v8.06h-32.18v-8.06h11.45V68.54h-11.45v-8.06h32.18V68.54z"/>
	<path d="M150.01,104.57c-4.54-4.92-6.8-11.17-6.8-18.76c0-7.58,2.27-13.82,6.8-18.72c4.54-4.9,10.62-7.34,18.25-7.34
		c7.63,0,13.7,2.46,18.22,7.38c4.51,4.92,6.77,11.15,6.77,18.68c0,7.58-2.26,13.84-6.77,18.76c-4.51,4.92-10.58,7.38-18.22,7.38
		C160.63,111.95,154.55,109.49,150.01,104.57z M156.53,72.67c-2.69,3.24-4.03,7.62-4.03,13.14c0,5.52,1.34,9.91,4.03,13.18
		c2.69,3.27,6.6,4.9,11.74,4.9c5.14,0,9.04-1.63,11.7-4.9c2.66-3.26,4-7.66,4-13.18c0-5.52-1.34-9.9-4.03-13.14
		c-2.69-3.24-6.58-4.86-11.66-4.86C163.13,67.81,159.22,69.43,156.53,72.67z"/>
	<path d="M200.45,111.23V60.47h18.36l19.37,48.38h2.38l-1.66-6.05V60.47h9.22v50.76h-18.36l-19.3-48.38h-2.38l1.66,6.05v42.34
		H200.45z"/>
</g>
<circle class="st0" cx="275.38" cy="86.31" r="23.89"/>
<g>
</g>
<g>
</g>
<g>
</g>
<g>
</g>
<g>
</g>
<g>
</g>
<g>
</g>
<g>
</g>
<g>
</g>
<g>
</g>
<g>
</g>
<g>
</g>
<g>
</g>
<g>
</g>
<g>
</g>
</svg>
