<?xml version="1.0" encoding="utf-8"?>
<!-- Generator: Adobe Illustrator 28.0.0, SVG Export Plug-In . SVG Version: 6.00 Build 0)  -->
<svg version="1.1" id="图层_1" xmlns="http://www.w3.org/2000/svg" xmlns:xlink="http://www.w3.org/1999/xlink" x="0px" y="0px"
	 viewBox="0 0 300 113" style="enable-background:new 0 0 300 113;" xml:space="preserve">
<style type="text/css">
	.st0{fill:#FFFFFF;}
	.st1{fill:#FFDD00;}
</style>
<g>
	<path class="st0" d="M1.2,44.6c0-3.1,1-5.6,3.1-7.4c2.1-1.8,5.5-3,10.3-3.6l12.5-1.5c-0.1-4.5-2.9-6.8-8.4-6.8
		c-2.5,0-4.6,0.6-6.1,1.7c-1.5,1.1-2.3,2.8-2.3,5.1H1.7c0-4.3,1.6-7.7,4.8-10.4s7.3-4,12.4-4c5.2,0,9.5,1.4,12.7,4.3
		c3.3,2.9,4.9,7,4.9,12.3v12.2h5.3v8.1h-7.3c-1.6,0-2.8-0.4-3.6-1.3c-0.8-0.9-1.3-2.1-1.3-3.6v-1.2l1.4-4.1h-2.5
		c-1.7,7.3-6.6,10.9-14.5,10.9c-2.6,0-4.8-0.4-6.6-1.1s-3.1-1.7-3.9-2.9c-0.8-1.2-1.4-2.3-1.7-3.4C1.4,46.8,1.2,45.7,1.2,44.6z
		 M10.5,43c0,1.4,0.5,2.4,1.4,3.1c0.9,0.7,2.2,1,3.7,1c3.5,0,6.3-0.9,8.4-2.6s3.2-4,3.2-6.9L16.4,39c-2.1,0.2-3.6,0.6-4.5,1.2
		C11,40.8,10.5,41.7,10.5,43z"/>
	<path class="st0" d="M58.9,47.2l13-0.7v8.1l-16.7,0.7c-1.8,0-3.2-0.4-4.2-1.4s-1.4-2.4-1.4-4.2V26.5h-8.3v-8.1h8.3v-7.8l9.3-2.9
		v10.7h11.6v8.1H58.9V47.2z"/>
	<path class="st0" d="M75.6,36c0-5.7,1.7-10.1,5.1-13.4s7.8-4.9,13.3-4.9s9.9,1.6,13.2,4.8c3.3,3.2,5,7.5,5,12.9v3H84.4
		c0.1,2.8,1,5.1,2.8,6.8s4.4,2.6,8,2.6c5.1,0,8.2-1.9,9.1-5.8h9.3c-0.6,3.3-2.5,6.4-5.6,9.2s-7.4,4.2-12.8,4.2
		c-6.4,0-11.2-1.8-14.5-5.5C77.3,46.1,75.6,41.6,75.6,36z M84.4,32.7h19.1c0-2.2-0.8-3.9-2.3-5.3s-3.9-2.1-7.1-2.1s-5.6,0.7-7.2,2.1
		C85.2,28.9,84.4,30.6,84.4,32.7z"/>
	<path class="st0" d="M116.7,54.5v-8.1h10.1V9.2l-8.1,0.5V1.6L130.3,1c1.9-0.1,3.3,0.3,4.3,1.3s1.5,2.4,1.5,4.3v39.8h10v8.1H116.7z"
		/>
	<path class="st0" d="M150.6,54.5v-8.1h10.2V26l-8.3,0.5v-8.1l11.5-0.7c1.8-0.1,3.2,0.3,4.2,1.3c1,1,1.4,2.3,1.4,4.1v23.4h10.2v8.1
		L150.6,54.5L150.6,54.5z M168.9,12.5c-1.1,1-2.6,1.5-4.5,1.5s-3.4-0.5-4.5-1.5c-1.1-1-1.7-2.3-1.7-4c0-1.7,0.6-3,1.7-4
		c1.1-1,2.6-1.5,4.5-1.5c1.8,0,3.3,0.5,4.5,1.5c1.1,1,1.7,2.3,1.7,4C170.6,10.2,170,11.5,168.9,12.5z"/>
	<path class="st0" d="M182.8,36c0-5.7,1.7-10.1,5.1-13.4s7.9-4.9,13.3-4.9s9.9,1.6,13.2,4.8c3.3,3.2,5,7.5,5,12.9v3h-27.9
		c0.1,2.8,1,5.1,2.8,6.8s4.4,2.6,8,2.6c5.1,0,8.2-1.9,9.1-5.8h9.3c-0.6,3.3-2.5,6.4-5.6,9.2s-7.4,4.2-12.8,4.2
		c-6.4,0-11.2-1.8-14.5-5.5C184.5,46.1,182.8,41.6,182.8,36z M191.6,32.7h19.1c0-2.2-0.8-3.9-2.3-5.3s-3.9-2.1-7.1-2.1
		s-5.6,0.7-7.2,2.1C192.4,28.9,191.6,30.6,191.6,32.7z"/>
	<path class="st0" d="M227,54.5V23.4c0-1.8,0.5-3.2,1.5-4.2c1-1,2.4-1.4,4.2-1.4l22.2,0.6v8.1L236.3,26v28.6L227,54.5L227,54.5z"/>
</g>
<g>
	<path class="st0" d="M2.2,92.4V60.5h9.3v28.4c0,5.2,0.8,9,2.5,11.4c1.7,2.4,5,3.6,10,3.6s8.3-1.2,10-3.6c1.7-2.4,2.5-6.2,2.5-11.4
		V60.5h9.3v31.9c0,6.4-1.8,11.2-5.5,14.6c-3.7,3.3-9.1,5-16.3,5c-7.2,0-12.7-1.7-16.3-5C4,103.6,2.2,98.8,2.2,92.4z"/>
	<path class="st0" d="M53.2,111.2V60.5h18.4l19.4,48.4h2.4l-1.7-6.1V60.5h9.2v50.8H82.5L63.2,62.8h-2.4l1.7,6v42.3L53.2,111.2
		L53.2,111.2z"/>
	<path class="st0" d="M140.6,68.5h-11.4v34.6h11.4v8.1h-32.2v-8.1h11.4V68.5h-11.4v-8.1h32.2V68.5z"/>
	<path class="st0" d="M150,104.6c-4.5-4.9-6.8-11.2-6.8-18.8c0-7.6,2.3-13.8,6.8-18.7c4.5-4.9,10.6-7.3,18.2-7.3s13.7,2.5,18.2,7.4
		c4.5,4.9,6.8,11.2,6.8,18.7c0,7.6-2.3,13.8-6.8,18.8c-4.5,4.9-10.6,7.4-18.2,7.4C160.6,111.9,154.6,109.5,150,104.6z M156.5,72.7
		c-2.7,3.2-4,7.6-4,13.1s1.3,9.9,4,13.2s6.6,4.9,11.7,4.9s9-1.6,11.7-4.9c2.7-3.3,4-7.7,4-13.2c0-5.5-1.3-9.9-4-13.1
		s-6.6-4.9-11.7-4.9C163.1,67.8,159.2,69.4,156.5,72.7z"/>
	<path class="st0" d="M200.4,111.2V60.5h18.4l19.4,48.4h2.4l-1.7-6.1V60.5h9.2v50.8h-18.4l-19.3-48.4h-2.4l1.7,6v42.3L200.4,111.2
		L200.4,111.2z"/>
</g>
<ellipse transform="matrix(0.1602 -0.9871 0.9871 0.1602 146.0735 344.3088)" class="st1" cx="275.4" cy="86.3" rx="23.9" ry="23.9"/>
</svg>
